Coordinates
version=1
nRows=32
nColumns=12
inDegrees=yes

Units are S.I. units (second, meters, Newtons, ...)
Angles are in degrees

endheader
time	SC_y	SC_z	SC_x	AC_y	AC_z	AC_x	GH_y	GH_z	GH_yy	EL_x	PS_y
       0.0               -43.1          16.97          32.76          37.93         -16.34         -4.154          58.32          84.46         -149.5          7.433          133.8
   0.02745              -43.09          16.97          32.76          37.93         -16.34         -4.155          58.33          84.46         -149.4          7.436          133.8
    0.0549              -43.09          16.96          32.76          37.93         -16.34         -4.155          58.33          84.45         -149.4          7.439          133.8
   0.08235              -43.09          16.96          32.76          37.94         -16.34         -4.156          58.33          84.45         -149.3          7.443          133.8
    0.1098              -43.09          16.96          32.76          37.94         -16.34         -4.156          58.33          84.44         -149.2          7.447          133.8
    0.1373              -43.09          16.96          32.75          37.94         -16.34         -4.157          58.33          84.44         -149.2          7.451          133.8
    0.1647              -43.08          16.96          32.75          37.94         -16.33         -4.158          58.33          84.43         -149.1          7.455          133.8
    0.1922              -43.08          16.96          32.75          37.95         -16.33         -4.159          58.34          84.43         -149.1           7.46          133.8
    0.2196              -43.08          16.96          32.75          37.95         -16.33          -4.16          58.34          84.42         -149.0          7.465          133.8
    0.2471              -43.08          16.96          32.74          37.95         -16.33         -4.161          58.34          84.41         -148.9           7.47          133.8
    0.2745              -43.07          16.96          32.74          37.96         -16.32         -4.162          58.34          84.41         -148.8          7.476          133.8
     0.302              -43.07          16.96          32.74          37.96         -16.32         -4.163          58.35           84.4         -148.7          7.482          133.8
    0.3294              -43.07          16.96          32.74          37.97         -16.32         -4.164          58.35          84.39         -148.6          7.489          133.8
    0.3569              -43.06          16.95          32.73          37.97         -16.31         -4.165          58.35          84.38         -148.5          7.496          133.8
    0.3843              -43.06          16.95          32.73          37.98         -16.31         -4.167          58.36          84.37         -148.4          7.504          133.8
    0.4118              -43.05          16.95          32.72          37.98          -16.3         -4.168          58.36          84.36         -148.3          7.513          133.8
    0.4392              -43.05          16.95          32.72          37.99          -16.3          -4.17          58.37          84.35         -148.1          7.522          133.8
    0.4667              -43.04          16.95          32.71          37.99         -16.29         -4.172          58.37          84.33         -148.0          7.532          133.8
    0.4941              -43.04          16.95          32.71           38.0         -16.29         -4.174          58.37          84.32         -147.8          7.543          133.8
    0.5216              -43.03          16.94           32.7          38.01         -16.28         -4.176          58.38           84.3         -147.6          7.555          133.8
     0.549              -43.02          16.94           32.7          38.02         -16.27         -4.178          58.39          84.28         -147.5          7.568          133.9
    0.5765              -43.02          16.94          32.69          38.03         -16.27         -4.181          58.39          84.27         -147.2          7.583          133.9
    0.6039              -43.01          16.94          32.68          38.04         -16.26         -4.183           58.4          84.24         -147.0          7.599          133.9
    0.6314               -43.0          16.93          32.67          38.05         -16.25         -4.187          58.41          84.22         -146.7          7.617          133.9
    0.6588              -42.99          16.93          32.66          38.06         -16.24          -4.19          58.42          84.19         -146.4          7.637          133.9
    0.6863              -42.97          16.93          32.65          38.07         -16.23         -4.194          58.43          84.17         -146.1          7.659          133.9
    0.7137              -42.96          16.92          32.64          38.09         -16.21         -4.198          58.44          84.13         -145.8          7.683          133.9
    0.7412              -42.95          16.92          32.63          38.11          -16.2         -4.203          58.45           84.1         -145.3          7.711          133.9
    0.7686              -42.93          16.91          32.61          38.13         -16.18         -4.209          58.47          84.06         -144.9          7.743          133.9
    0.7961              -42.91           16.9           32.6          38.15         -16.17         -4.215          58.48          84.01         -144.4          7.779          133.9
    0.8235              -42.89           16.9          32.58          38.17         -16.14         -4.223           58.5          83.95         -143.8          7.819          133.9
     0.851              -42.86          16.89          32.55           38.2         -16.12         -4.231          58.52          83.89         -143.1          7.866          134.0
